# xmcd
#
# Track frame offsets: 
#        182
#        21130
#        37165
#        58337
#        76145
#        99707
#        114545
#        135970
#        158945
#        185970
#
# Disc length: 2740 seconds
#
# Revision: 1
# Processed by: cddbd v1.5.2PL0 Copyright (c) Steve Scherf et al.
# Submitted via: ExactAudioCopy v0.99pb4
#
DISCID=880ab20a
DTITLE=Rubber Rodeo - Scenic Views
DYEAR=1984
DGENRE=Country
TTITLE0=Need You Need Me
TTITLE1=Slow Me Down
TTITLE2=Anywhere With You
TTITLE3=Walking After Midnight
TTITLE4=City Of God
TTITLE5=The Hardest Thing
TTITLE6=House Of Pain
TTITLE7=Mess O'Me
TTITLE8=Before I Go Away
TTITLE9=Woman Of Straw
EXTD=
EXTT0=
EXTT1=
EXTT2=
EXTT3=
EXTT4=
EXTT5=
EXTT6=
EXTT7=
EXTT8=
EXTT9=
PLAYORDER=
